<svg width="280" height="120" viewBox="0 0 280 120" fill="none" xmlns="http://www.w3.org/2000/svg">
<g clip-path="url(#clip0_1_2)">
<path d="M112.139 17.5679C112.126 17.5638 112.113 17.5605 112.1 17.5565C112.096 17.5555 112.092 17.5543 112.088 17.553C111.442 17.3574 110.78 17.1979 110.12 17.0793L105.384 16.229C104.423 16.0563 103.456 15.9925 102.499 16.0342L97.415 9.61014C96.8169 8.85436 95.6826 8.67172 94.8819 9.20259C94.081 9.73328 93.9168 10.7765 94.515 11.5323L98.6774 16.7922C97.8919 17.0811 97.1454 17.4495 96.4462 17.8901L93.1693 13.7497C92.5711 12.9938 91.4369 12.8115 90.636 13.3422C89.8353 13.8729 89.6711 14.9161 90.2691 15.6719L93.8228 20.1622C92.6371 21.566 91.85 23.2223 91.5263 25.0251L90.2139 32.3345L88.653 41.0277L83.0561 72.199L80.6876 85.3897C80.5893 85.9372 80.7945 86.5017 81.2345 86.8954C81.4999 87.1328 81.8298 87.2891 82.1789 87.3518C82.4084 87.393 82.6465 87.3937 82.8796 87.3503C88.1079 86.3796 92.283 82.0389 93.2688 76.5487C93.4091 75.7672 93.4817 74.9801 93.4884 74.1963C97.8099 73.4473 101.754 71.6075 104.973 68.8189C108.661 65.6235 111.053 61.4679 111.891 56.8013C112.76 51.9602 111.825 46.9264 109.258 42.5545L109.352 42.0331C113.833 42.1429 118.788 40.0179 120.492 36.4135L122.323 36.7422C123.309 36.9193 124.24 36.328 124.403 35.4214L124.653 34.0278C125.986 26.6093 119.193 19.7071 112.139 17.5679ZM84.7914 83.0674L86.4388 73.8924C87.5928 73.591 88.7088 73.1692 89.7803 72.6299C89.7907 72.7126 89.8048 72.7943 89.8132 72.8774C89.918 73.8776 89.8789 74.8971 89.6974 75.9079C89.1372 79.0268 87.2838 81.6467 84.7914 83.0674ZM108.32 56.1606C106.982 63.6111 100.968 69.3313 93.104 70.8396C93.0786 70.7348 93.0525 70.6299 93.0246 70.5257C96.5109 67.6977 98.8602 63.6824 99.6836 59.0966C100.196 56.242 100.081 53.4009 99.34 50.6519C99.0967 49.7497 98.1135 49.179 97.1442 49.3775C96.1746 49.5756 95.5856 50.4678 95.8287 51.3699C96.448 53.6688 96.5433 56.0527 96.112 58.4553C95.3737 62.5669 93.084 66.2516 89.8302 68.5641C88.9683 69.177 88.0637 69.6816 87.1239 70.0754L92.2243 41.6693L93.7852 32.976L95.0976 25.6667C95.3849 24.0667 96.1904 22.6314 97.4281 21.5148C98.6752 20.3883 100.25 19.6722 101.985 19.4435C102.909 19.3202 103.854 19.3433 104.795 19.5121L109.531 20.3625C109.539 20.364 109.547 20.3658 109.556 20.3673L107.401 32.3693L106.287 38.5695C106.056 38.3194 105.82 38.0724 105.577 37.8314C104.886 37.146 103.74 37.0922 103.018 37.7114C102.296 38.3306 102.271 39.3881 102.963 40.0735C104.054 41.1555 105.012 42.3488 105.809 43.6203C108.196 47.4305 109.088 51.8842 108.32 56.1606ZM109.953 38.6847L110.678 34.6519L116.711 35.7353C115.383 37.4596 112.555 38.5794 109.953 38.6847ZM119.516 32.8501L111.267 31.3691L113.041 21.4876C117.789 23.6868 121.807 28.402 121.122 33.1386L119.516 32.8501Z" fill="black"/>
<path d="M102.887 24.5611C104.645 24.8709 105.781 26.7571 105.425 28.7733L105.008 31.1427C104.652 33.1593 102.939 34.5427 101.182 34.2328C99.4245 33.923 98.2882 32.0372 98.6438 30.0206L99.0616 27.6511C99.4171 25.635 101.13 24.2512 102.887 24.5611Z" fill="black"/>
<path d="M48.64 104.632C48.64 104.68 48.696 104.72 48.808 104.752C48.92 104.768 49.064 104.792 49.24 104.824C49.432 104.856 49.64 104.88 49.864 104.896C50.088 104.896 50.304 104.896 50.512 104.896L51.136 104.896L51.136 106L44.152 106L44.152 104.896L44.392 104.896C44.984 104.896 45.472 104.84 45.856 104.728C46.24 104.616 46.432 104.384 46.432 104.032L46.432 90.928C46.432 90.576 46.24 90.344 45.856 90.232C45.472 90.12 44.984 90.064 44.392 90.064L44.152 90.064L44.152 88.96L51.256 88.96C53.256 88.96 54.808 89.416 55.912 90.328C57.016 91.24 57.568 92.456 57.568 93.976C57.568 95 57.304 95.904 56.776 96.688C56.264 97.456 55.528 98.064 54.568 98.512C53.608 98.96 52.464 99.184 51.136 99.184L47.92 99.184L47.92 97.84L51.088 97.84C52.016 97.84 52.776 97.68 53.368 97.36C53.976 97.04 54.424 96.592 54.712 96.016C55.016 95.44 55.168 94.768 55.168 94C55.168 93.216 55.024 92.56 54.736 92.032C54.448 91.488 54.008 91.072 53.416 90.784C52.84 90.496 52.104 90.352 51.208 90.352L48.64 90.352L48.64 104.632ZM66.8264 102.832C66.8264 102.496 66.7384 102.216 66.5624 101.992C66.3864 101.768 66.1464 101.584 65.8424 101.44C65.5544 101.28 65.2184 101.152 64.8344 101.056C64.4664 100.944 64.0744 100.84 63.6584 100.744C63.1624 100.616 62.6664 100.472 62.1704 100.312C61.6904 100.152 61.2504 99.944 60.8504 99.688C60.4504 99.416 60.1304 99.072 59.8904 98.656C59.6504 98.24 59.5304 97.72 59.5304 97.096C59.5304 96.408 59.7064 95.8 60.0584 95.272C60.4104 94.728 60.9144 94.312 61.5704 94.024C62.2424 93.72 63.0504 93.568 63.9944 93.568C64.7304 93.568 65.3704 93.624 65.9144 93.736C66.4744 93.848 66.9384 93.992 67.3064 94.168C67.6744 94.328 67.9464 94.48 68.1224 94.624L68.1224 97.216L66.0584 97.216L66.0584 94.96C66.2344 94.96 66.3784 94.992 66.4904 95.056C66.6184 95.104 66.7144 95.184 66.7784 95.296C66.8424 95.392 66.8824 95.512 66.8984 95.656C66.9144 95.8 66.8984 95.96 66.8504 96.136C66.6744 95.864 66.4424 95.64 66.1544 95.464C65.8664 95.272 65.5384 95.136 65.1704 95.056C64.8184 94.96 64.4264 94.912 63.9944 94.912C63.1624 94.912 62.5384 95.096 62.1224 95.464C61.7064 95.816 61.4984 96.272 61.4984 96.832C61.4984 97.184 61.5864 97.488 61.7624 97.744C61.9544 97.984 62.2024 98.184 62.5064 98.344C62.8264 98.488 63.1784 98.616 63.5624 98.728C63.9624 98.84 64.3784 98.952 64.8104 99.064C65.2904 99.176 65.7704 99.312 66.2504 99.472C66.7304 99.632 67.1624 99.84 67.5464 100.096C67.9464 100.352 68.2584 100.68 68.4824 101.08C68.7224 101.48 68.8424 101.984 68.8424 102.592C68.8424 103.28 68.6504 103.904 68.2664 104.464C67.8824 105.008 67.3304 105.44 66.6104 105.76C65.9064 106.08 65.0504 106.24 64.0424 106.24C63.2744 106.24 62.5784 106.176 61.9544 106.048C61.3464 105.936 60.8024 105.784 60.3224 105.592C59.8424 105.384 59.4104 105.16 59.0264 104.92L59.0264 102.16L61.1384 102.16L61.1384 105.208C60.8984 105.064 60.7144 104.92 60.5864 104.776C60.4584 104.632 60.3704 104.496 60.3224 104.368C60.2744 104.224 60.2584 104.08 60.2744 103.936C60.2904 103.776 60.3224 103.616 60.3704 103.456C60.6424 103.792 60.9624 104.064 61.3304 104.272C61.6984 104.48 62.1064 104.64 62.5544 104.752C63.0024 104.848 63.4904 104.896 64.0184 104.896C64.5944 104.896 65.0904 104.816 65.5064 104.656C65.9224 104.496 66.2424 104.264 66.4664 103.96C66.7064 103.64 66.8264 103.264 66.8264 102.832ZM77.3586 104.92L77.0706 105.808L75.8706 106.36L71.3586 95.704C71.2626 95.48 71.1346 95.312 70.9746 95.2C70.8146 95.072 70.6146 94.984 70.3746 94.936C70.1346 94.888 69.8546 94.864 69.5346 94.864L69.5106 94.864L69.5106 93.808L75.5106 93.808L75.5106 94.864L75.4626 94.864C75.1426 94.864 74.8146 94.872 74.4786 94.888C74.1586 94.904 73.8866 94.928 73.6626 94.96C73.4546 94.976 73.3506 95.016 73.3506 95.08L77.3586 104.92ZM77.5986 105.592C77.1666 106.616 76.7346 107.504 76.3026 108.256C75.8706 109.024 75.4226 109.648 74.9586 110.128C74.5106 110.608 74.0306 110.968 73.5186 111.208C73.0066 111.448 72.4466 111.568 71.8386 111.568C71.4386 111.568 71.1026 111.52 70.8306 111.424C70.5746 111.344 70.3586 111.248 70.1826 111.136L70.1826 109.216C70.2306 109.232 70.3266 109.272 70.4706 109.336C70.6306 109.416 70.8226 109.488 71.0466 109.552C71.2866 109.616 71.5426 109.648 71.8146 109.648C72.1986 109.648 72.5746 109.584 72.9426 109.456C73.3106 109.344 73.6866 109.112 74.0706 108.76C74.4546 108.424 74.8386 107.928 75.2226 107.272C75.6226 106.616 76.0306 105.76 76.4466 104.704L76.6386 104.272L80.2626 95.392C80.2626 95.28 80.1666 95.192 79.9746 95.128C79.7826 95.048 79.5346 94.984 79.2306 94.936C78.9266 94.888 78.6146 94.864 78.2946 94.864L78.2226 94.864L78.2226 93.808L83.4306 93.808L83.4306 94.864L83.4066 94.864C83.1666 94.864 82.9346 94.896 82.7106 94.96C82.4866 95.008 82.2786 95.112 82.0866 95.272C81.8946 95.416 81.7346 95.64 81.6066 95.944L77.5986 105.592ZM90.5661 104.896C91.2861 104.896 91.9021 104.76 92.4141 104.488C92.9261 104.216 93.3581 103.88 93.7101 103.48C94.0781 103.08 94.3901 102.696 94.6461 102.328L95.6781 103.312C95.3261 103.84 94.9101 104.328 94.4301 104.776C93.9661 105.224 93.4061 105.584 92.7501 105.856C92.1101 106.112 91.3581 106.24 90.4941 106.24C89.2301 106.24 88.1181 105.968 87.1581 105.424C86.2141 104.88 85.4781 104.136 84.9501 103.192C84.4381 102.232 84.1821 101.136 84.1821 99.904C84.1821 98.64 84.4541 97.536 84.9981 96.592C85.5581 95.648 86.3261 94.912 87.3021 94.384C88.2941 93.84 89.4381 93.568 90.7341 93.568C91.5181 93.568 92.2221 93.656 92.8461 93.832C93.4861 94.008 94.0221 94.216 94.4541 94.456C94.9021 94.696 95.2301 94.92 95.4381 95.128L95.4381 98.104L93.3261 98.104L93.3261 95.392C93.5021 95.424 93.6621 95.48 93.8061 95.56C93.9501 95.624 94.0701 95.72 94.1661 95.848C94.2781 95.96 94.3501 96.096 94.3821 96.256C94.4301 96.416 94.4381 96.6 94.4061 96.808C94.1181 96.264 93.6301 95.816 92.9421 95.464C92.2701 95.096 91.5341 94.912 90.7341 94.912C89.7901 94.912 88.9981 95.128 88.3581 95.56C87.7181 95.976 87.2381 96.56 86.9181 97.312C86.5981 98.064 86.4381 98.928 86.4381 99.904C86.4381 100.64 86.5261 101.312 86.7021 101.92C86.8941 102.528 87.1661 103.056 87.5181 103.504C87.8701 103.952 88.3021 104.296 88.8141 104.536C89.3261 104.776 89.9101 104.896 90.5661 104.896ZM101.549 88.36L101.549 104.68C101.549 104.728 101.645 104.776 101.837 104.824C102.029 104.856 102.261 104.88 102.533 104.896C102.805 104.912 103.053 104.92 103.277 104.92L103.349 104.92L103.349 106L97.3729 106L97.3729 104.92L97.4209 104.92C97.8049 104.92 98.1409 104.896 98.4289 104.848C98.7329 104.8 98.9729 104.712 99.1489 104.584C99.3249 104.456 99.4129 104.28 99.4129 104.056L99.4129 90.568C99.4129 90.328 99.3489 90.144 99.2209 90.016C99.0929 89.888 98.9009 89.784 98.6449 89.704C98.3889 89.624 98.0529 89.552 97.6369 89.488L97.3729 89.44L97.3729 88.36L101.549 88.36ZM111.413 106L105.461 106L105.461 104.92L105.509 104.92C105.733 104.92 105.981 104.912 106.253 104.896C106.525 104.88 106.757 104.856 106.949 104.824C107.157 104.776 107.261 104.728 107.261 104.68L107.261 97.672C107.261 97.064 107.197 96.568 107.069 96.184C106.941 95.8 106.725 95.52 106.421 95.344C106.133 95.152 105.733 95.056 105.221 95.056C104.677 95.056 104.165 95.16 103.685 95.368C103.205 95.576 102.757 95.888 102.341 96.304C101.925 96.704 101.525 97.208 101.141 97.816L101.117 96.208C101.549 95.616 101.981 95.128 102.413 94.744C102.861 94.344 103.341 94.048 103.853 93.856C104.365 93.664 104.933 93.568 105.557 93.568C106.325 93.568 106.997 93.704 107.573 93.976C108.149 94.248 108.597 94.672 108.917 95.248C109.237 95.808 109.397 96.536 109.397 97.432L109.397 104.056C109.397 104.28 109.477 104.456 109.637 104.584C109.813 104.712 110.053 104.8 110.357 104.848C110.661 104.896 110.997 104.92 111.365 104.92L111.413 104.92L111.413 106ZM125.562 99.904C125.562 101.136 125.29 102.232 124.746 103.192C124.218 104.152 123.482 104.904 122.538 105.448C121.594 105.976 120.514 106.24 119.298 106.24C118.082 106.24 117.002 105.976 116.058 105.448C115.114 104.904 114.37 104.152 113.826 103.192C113.298 102.232 113.034 101.136 113.034 99.904C113.034 98.976 113.186 98.128 113.49 97.36C113.794 96.576 114.226 95.904 114.786 95.344C115.362 94.784 116.026 94.352 116.778 94.048C117.546 93.728 118.386 93.568 119.298 93.568C120.21 93.568 121.042 93.728 121.794 94.048C122.562 94.352 123.226 94.784 123.786 95.344C124.362 95.904 124.802 96.576 125.106 97.36C125.41 98.128 125.562 98.976 125.562 99.904ZM115.29 99.904C115.29 100.896 115.45 101.776 115.77 102.544C116.106 103.296 116.57 103.88 117.162 104.296C117.77 104.696 118.482 104.896 119.298 104.896C120.13 104.896 120.842 104.696 121.434 104.296C122.026 103.88 122.482 103.296 122.802 102.544C123.138 101.776 123.306 100.896 123.306 99.904C123.306 98.896 123.138 98.016 122.802 97.264C122.482 96.512 122.026 95.936 121.434 95.536C120.842 95.12 120.13 94.912 119.298 94.912C118.482 94.912 117.77 95.12 117.162 95.536C116.57 95.936 116.106 96.512 115.77 97.264C115.45 98.016 115.29 98.896 115.29 99.904ZM131.64 88.36L131.64 104.056C131.64 104.408 131.824 104.64 132.192 104.752C132.56 104.864 133.032 104.92 133.608 104.92L133.656 104.92L133.656 106L127.488 106L127.488 104.92L127.536 104.92C128.112 104.92 128.584 104.864 128.952 104.752C129.32 104.64 129.504 104.408 129.504 104.056L129.504 90.568C129.504 90.328 129.44 90.144 129.312 90.016C129.184 89.888 128.992 89.784 128.736 89.704C128.48 89.624 128.144 89.552 127.728 89.488L127.464 89.44L127.464 88.36L131.64 88.36ZM147.71 99.904C147.71 101.136 147.438 102.232 146.894 103.192C146.366 104.152 145.63 104.904 144.686 105.448C143.742 105.976 142.662 106.24 141.446 106.24C140.23 106.24 139.15 105.976 138.206 105.448C137.262 104.904 136.518 104.152 135.974 103.192C135.446 102.232 135.182 101.136 135.182 99.904C135.182 98.976 135.334 98.128 135.638 97.36C135.942 96.576 136.374 95.904 136.934 95.344C137.51 94.784 138.174 94.352 138.926 94.048C139.694 93.728 140.534 93.568 141.446 93.568C142.358 93.568 143.19 93.728 143.942 94.048C144.71 94.352 145.374 94.784 145.934 95.344C146.51 95.904 146.95 96.576 147.254 97.36C147.558 98.128 147.71 98.976 147.71 99.904ZM137.438 99.904C137.438 100.896 137.598 101.776 137.918 102.544C138.254 103.296 138.718 103.88 139.31 104.296C139.918 104.696 140.63 104.896 141.446 104.896C142.278 104.896 142.99 104.696 143.582 104.296C144.174 103.88 144.63 103.296 144.95 102.544C145.286 101.776 145.454 100.896 145.454 99.904C145.454 98.896 145.286 98.016 144.95 97.264C144.63 96.512 144.174 95.936 143.582 95.536C142.99 95.12 142.278 94.912 141.446 94.912C140.63 94.912 139.918 95.12 139.31 95.536C138.718 95.936 138.254 96.512 137.918 97.264C137.598 98.016 137.438 98.896 137.438 99.904ZM162.239 95.488C161.535 95.424 160.935 95.392 160.439 95.392C159.943 95.392 159.527 95.448 159.191 95.56C158.871 95.656 158.607 95.84 158.399 96.112L158.087 95.752C158.311 95.288 158.567 94.896 158.855 94.576C159.159 94.24 159.487 93.968 159.839 93.76C160.191 93.552 160.567 93.416 160.967 93.352C161.367 93.272 161.791 93.256 162.239 93.304L162.239 95.488ZM155.207 102.376C154.279 102.376 153.447 102.2 152.711 101.848C151.991 101.48 151.423 100.968 151.007 100.312C150.591 99.656 150.383 98.888 150.383 98.008C150.383 97.128 150.591 96.36 151.007 95.704C151.439 95.032 152.015 94.512 152.735 94.144C153.471 93.76 154.295 93.568 155.207 93.568C156.135 93.568 156.959 93.76 157.679 94.144C158.415 94.512 158.991 95.032 159.407 95.704C159.839 96.36 160.055 97.128 160.055 98.008C160.055 98.888 159.839 99.656 159.407 100.312C158.991 100.968 158.415 101.48 157.679 101.848C156.959 102.2 156.135 102.376 155.207 102.376ZM155.207 101.008C155.767 101.008 156.247 100.888 156.647 100.648C157.063 100.408 157.383 100.072 157.607 99.64C157.831 99.192 157.943 98.648 157.943 98.008C157.943 97.352 157.831 96.8 157.607 96.352C157.383 95.888 157.063 95.536 156.647 95.296C156.247 95.056 155.767 94.936 155.207 94.936C154.663 94.936 154.183 95.056 153.767 95.296C153.367 95.536 153.055 95.888 152.831 96.352C152.607 96.8 152.495 97.352 152.495 98.008C152.495 98.648 152.607 99.192 152.831 99.64C153.055 100.072 153.367 100.408 153.767 100.648C154.183 100.888 154.663 101.008 155.207 101.008ZM154.847 111.688C153.775 111.688 152.807 111.584 151.943 111.376C151.079 111.168 150.391 110.832 149.879 110.368C149.383 109.904 149.135 109.288 149.135 108.52C149.135 108.136 149.231 107.784 149.423 107.464C149.631 107.144 149.935 106.84 150.335 106.552C150.735 106.28 151.247 106 151.871 105.712L152.759 106.336C152.359 106.528 152.031 106.736 151.775 106.96C151.519 107.184 151.327 107.416 151.199 107.656C151.087 107.896 151.031 108.152 151.031 108.424C151.031 108.824 151.167 109.152 151.439 109.408C151.711 109.68 152.127 109.888 152.687 110.032C153.263 110.176 153.991 110.248 154.871 110.248L155.711 110.248C156.527 110.248 157.255 110.144 157.895 109.936C158.535 109.744 159.031 109.472 159.383 109.12C159.751 108.768 159.935 108.36 159.935 107.896C159.935 107.432 159.759 107.096 159.407 106.888C159.071 106.696 158.431 106.6 157.487 106.6L152.063 106.6L151.991 106.6C151.479 106.328 151.071 106.072 150.767 105.832C150.463 105.576 150.247 105.312 150.119 105.04C150.007 104.768 149.951 104.48 149.951 104.176C149.951 103.792 150.047 103.432 150.239 103.096C150.431 102.76 150.719 102.44 151.103 102.136C151.487 101.816 151.975 101.52 152.567 101.248L153.479 101.896C153.159 102.056 152.879 102.224 152.639 102.4C152.399 102.576 152.215 102.76 152.087 102.952C151.975 103.144 151.919 103.352 151.919 103.576C151.919 103.912 152.087 104.16 152.423 104.32C152.775 104.464 153.271 104.536 153.911 104.536L157.511 104.536C158.471 104.536 159.271 104.648 159.911 104.872C160.567 105.08 161.063 105.408 161.399 105.856C161.735 106.288 161.903 106.84 161.903 107.512C161.903 108.456 161.615 109.232 161.039 109.84C160.479 110.464 159.727 110.928 158.783 111.232C157.855 111.536 156.839 111.688 155.735 111.688L154.847 111.688ZM170.57 104.92L170.282 105.808L169.082 106.36L164.57 95.704C164.474 95.48 164.346 95.312 164.186 95.2C164.026 95.072 163.826 94.984 163.586 94.936C163.346 94.888 163.066 94.864 162.746 94.864L162.722 94.864L162.722 93.808L168.722 93.808L168.722 94.864L168.674 94.864C168.354 94.864 168.026 94.872 167.69 94.888C167.37 94.904 167.098 94.928 166.874 94.96C166.666 94.976 166.562 95.016 166.562 95.08L170.57 104.92ZM170.81 105.592C170.378 106.616 169.946 107.504 169.514 108.256C169.082 109.024 168.634 109.648 168.17 110.128C167.722 110.608 167.242 110.968 166.73 111.208C166.218 111.448 165.658 111.568 165.05 111.568C164.65 111.568 164.314 111.52 164.042 111.424C163.786 111.344 163.57 111.248 163.394 111.136L163.394 109.216C163.442 109.232 163.538 109.272 163.682 109.336C163.842 109.416 164.034 109.488 164.258 109.552C164.498 109.616 164.754 109.648 165.026 109.648C165.41 109.648 165.786 109.584 166.154 109.456C166.522 109.344 166.898 109.112 167.282 108.76C167.666 108.424 168.05 107.928 168.434 107.272C168.834 106.616 169.242 105.76 169.658 104.704L169.85 104.272L173.474 95.392C173.474 95.28 173.378 95.192 173.186 95.128C172.994 95.048 172.746 94.984 172.442 94.936C172.138 94.888 171.826 94.864 171.506 94.864L171.434 94.864L171.434 93.808L176.642 93.808L176.642 94.864L176.618 94.864C176.378 94.864 176.146 94.896 175.922 94.96C175.698 95.008 175.49 95.112 175.298 95.272C175.106 95.416 174.946 95.64 174.818 95.944L170.81 105.592ZM191.085 88.96C191.997 88.96 192.805 89.064 193.509 89.272C194.229 89.464 194.829 89.752 195.309 90.136C195.805 90.504 196.181 90.96 196.437 91.504C196.693 92.032 196.821 92.624 196.821 93.28C196.821 94.08 196.597 94.792 196.149 95.416C195.701 96.024 195.037 96.496 194.157 96.832C193.277 97.168 192.189 97.336 190.893 97.336L192.789 96.424L192.789 97.576L191.109 96.712C192.501 96.712 193.677 96.896 194.637 97.264C195.597 97.632 196.325 98.16 196.821 98.848C197.317 99.52 197.565 100.312 197.565 101.224C197.565 101.96 197.421 102.624 197.133 103.216C196.861 103.808 196.453 104.312 195.909 104.728C195.381 105.144 194.733 105.464 193.965 105.688C193.197 105.896 192.317 106 191.325 106L183.885 106L183.885 104.896L184.149 104.896C184.725 104.896 185.205 104.84 185.589 104.728C185.973 104.616 186.165 104.384 186.165 104.032L186.165 90.928C186.165 90.576 185.973 90.344 185.589 90.232C185.205 90.12 184.725 90.064 184.149 90.064L183.885 90.064L183.885 88.96L191.085 88.96ZM187.917 96.4L191.085 96.4C191.933 96.4 192.613 96.272 193.125 96.016C193.637 95.76 194.005 95.4 194.229 94.936C194.453 94.456 194.565 93.912 194.565 93.304C194.565 92.664 194.437 92.12 194.181 91.672C193.941 91.224 193.565 90.888 193.053 90.664C192.541 90.424 191.877 90.304 191.061 90.304L188.397 90.304L188.397 104.656L191.277 104.656C192.189 104.656 192.941 104.528 193.533 104.272C194.125 104 194.557 103.608 194.829 103.096C195.117 102.568 195.261 101.936 195.261 101.2C195.261 100.528 195.125 99.936 194.853 99.424C194.581 98.896 194.149 98.488 193.557 98.2C192.981 97.896 192.221 97.744 191.277 97.744L187.917 97.744L187.917 96.4ZM203.804 88.36L203.804 104.056C203.804 104.408 203.988 104.64 204.356 104.752C204.724 104.864 205.196 104.92 205.772 104.92L205.82 104.92L205.82 106L199.652 106L199.652 104.92L199.7 104.92C200.276 104.92 200.748 104.864 201.116 104.752C201.484 104.64 201.668 104.408 201.668 104.056L201.668 90.568C201.668 90.328 201.604 90.144 201.476 90.016C201.348 89.888 201.156 89.784 200.9 89.704C200.644 89.624 200.308 89.552 199.892 89.488L199.628 89.44L199.628 88.36L203.804 88.36ZM219.874 99.904C219.874 101.136 219.602 102.232 219.058 103.192C218.53 104.152 217.794 104.904 216.85 105.448C215.906 105.976 214.826 106.24 213.61 106.24C212.394 106.24 211.314 105.976 210.37 105.448C209.426 104.904 208.682 104.152 208.138 103.192C207.61 102.232 207.346 101.136 207.346 99.904C207.346 98.976 207.498 98.128 207.802 97.36C208.106 96.576 208.538 95.904 209.098 95.344C209.674 94.784 210.338 94.352 211.09 94.048C211.858 93.728 212.698 93.568 213.61 93.568C214.522 93.568 215.354 93.728 216.106 94.048C216.874 94.352 217.538 94.784 218.098 95.344C218.674 95.904 219.114 96.576 219.418 97.36C219.722 98.128 219.874 98.976 219.874 99.904ZM209.602 99.904C209.602 100.896 209.762 101.776 210.082 102.544C210.418 103.296 210.882 103.88 211.474 104.296C212.082 104.696 212.794 104.896 213.61 104.896C214.442 104.896 215.154 104.696 215.746 104.296C216.338 103.88 216.794 103.296 217.114 102.544C217.45 101.776 217.618 100.896 217.618 99.904C217.618 98.896 217.45 98.016 217.114 97.264C216.794 96.512 216.338 95.936 215.746 95.536C215.154 95.12 214.442 94.912 213.61 94.912C212.794 94.912 212.082 95.12 211.474 95.536C210.882 95.936 210.418 96.512 210.082 97.264C209.762 98.016 209.602 98.896 209.602 99.904ZM234.403 95.488C233.699 95.424 233.099 95.392 232.603 95.392C232.107 95.392 231.691 95.448 231.355 95.56C231.035 95.656 230.771 95.84 230.563 96.112L230.251 95.752C230.475 95.288 230.731 94.896 231.019 94.576C231.323 94.24 231.651 93.968 232.003 93.76C232.355 93.552 232.731 93.416 233.131 93.352C233.531 93.272 233.955 93.256 234.403 93.304L234.403 95.488ZM227.371 102.376C226.443 102.376 225.611 102.2 224.875 101.848C224.155 101.48 223.587 100.968 223.171 100.312C222.755 99.656 222.547 98.888 222.547 98.008C222.547 97.128 222.755 96.36 223.171 95.704C223.603 95.032 224.179 94.512 224.899 94.144C225.635 93.76 226.459 93.568 227.371 93.568C228.299 93.568 229.123 93.76 229.843 94.144C230.579 94.512 231.155 95.032 231.571 95.704C232.003 96.36 232.219 97.128 232.219 98.008C232.219 98.888 232.003 99.656 231.571 100.312C231.155 100.968 230.579 101.48 229.843 101.848C229.123 102.2 228.299 102.376 227.371 102.376ZM227.371 101.008C227.931 101.008 228.411 100.888 228.811 100.648C229.227 100.408 229.547 100.072 229.771 99.64C229.995 99.192 230.107 98.648 230.107 98.008C230.107 97.352 229.995 96.8 229.771 96.352C229.547 95.888 229.227 95.536 228.811 95.296C228.411 95.056 227.931 94.936 227.371 94.936C226.827 94.936 226.347 95.056 225.931 95.296C225.531 95.536 225.219 95.888 224.995 96.352C224.771 96.8 224.659 97.352 224.659 98.008C224.659 98.648 224.771 99.192 224.995 99.64C225.219 100.072 225.531 100.408 225.931 100.648C226.347 100.888 226.827 101.008 227.371 101.008ZM227.011 111.688C225.939 111.688 224.971 111.584 224.107 111.376C223.243 111.168 222.555 110.832 222.043 110.368C221.547 109.904 221.299 109.288 221.299 108.52C221.299 108.136 221.395 107.784 221.587 107.464C221.795 107.144 222.099 106.84 222.499 106.552C222.899 106.28 223.411 106 224.035 105.712L224.923 106.336C224.523 106.528 224.195 106.736 223.939 106.96C223.683 107.184 223.491 107.416 223.363 107.656C223.251 107.896 223.195 108.152 223.195 108.424C223.195 108.824 223.331 109.152 223.603 109.408C223.875 109.68 224.291 109.888 224.851 110.032C225.427 110.176 226.155 110.248 227.035 110.248L227.875 110.248C228.691 110.248 229.419 110.144 230.059 109.936C230.699 109.744 231.195 109.472 231.547 109.12C231.915 108.768 232.099 108.36 232.099 107.896C232.099 107.432 231.923 107.096 231.571 106.888C231.235 106.696 230.595 106.6 229.651 106.6L224.227 106.6L224.155 106.6C223.643 106.328 223.235 106.072 222.931 105.832C222.627 105.576 222.411 105.312 222.283 105.04C222.171 104.768 222.115 104.48 222.115 104.176C222.115 103.792 222.211 103.432 222.403 103.096C222.595 102.76 222.883 102.44 223.267 102.136C223.651 101.816 224.139 101.52 224.731 101.248L225.643 101.896C225.323 102.056 225.043 102.224 224.803 102.4C224.563 102.576 224.379 102.76 224.251 102.952C224.139 103.144 224.083 103.352 224.083 103.576C224.083 103.912 224.251 104.16 224.587 104.32C224.939 104.464 225.435 104.536 226.075 104.536L229.675 104.536C230.635 104.536 231.435 104.648 232.075 104.872C232.731 105.08 233.227 105.408 233.563 105.856C233.899 106.288 234.067 106.84 234.067 107.512C234.067 108.456 233.779 109.232 233.203 109.84C232.643 110.464 231.891 110.928 230.947 111.232C230.019 111.536 229.003 111.688 227.899 111.688L227.011 111.688Z" fill="black"/>
<path d="M11.092 74.272C9.55067 74.272 8.168 73.7053 6.944 72.572C5.72 71.3933 5.108 69.4213 5.108 66.656C5.108 64.8427 5.35733 62.8253 5.856 60.604C6.4 58.3827 7.03467 56.0933 7.76 53.736C8.53067 51.3333 9.30133 49.0213 10.072 46.8C10.8427 44.5787 11.4773 42.5613 11.976 40.748C12.4747 38.9347 12.724 37.5067 12.724 36.464C12.724 35.24 12.248 34.628 11.296 34.628C10.1627 34.628 9.09733 35.2853 8.1 36.6C7.10267 37.8693 5.992 39.66 4.768 41.972L4.36 41.836C4.36 38.2547 5.312 35.1493 7.216 32.52C9.12 29.8453 11.6813 27.7827 14.9 26.332C18.164 24.8813 21.7907 24.156 25.78 24.156C29.8147 24.156 33.0787 24.8587 35.572 26.264C38.1107 27.624 39.9693 29.4147 41.148 31.636C42.372 33.812 42.984 36.1467 42.984 38.64C42.984 40.7707 42.576 42.9013 41.76 45.032C40.9893 47.1173 39.856 49.0213 38.36 50.744C36.9093 52.4667 35.1867 53.8493 33.192 54.892C31.1973 55.9347 28.9987 56.456 26.596 56.456C24.1027 56.456 21.5187 55.8213 18.844 54.552C18.2547 56.7733 17.7333 59.04 17.28 61.352C16.8267 63.6187 16.6 65.9533 16.6 68.356C16.6 69.5347 16.668 70.7133 16.804 71.892C16.0333 72.6627 15.1267 73.252 14.084 73.66C13.0867 74.068 12.0893 74.272 11.092 74.272ZM21.972 49.656C23.7853 49.656 25.372 49.1573 26.732 48.16C28.092 47.1173 29.1347 45.8253 29.86 44.284C30.6307 42.6973 31.016 41.1107 31.016 39.524C31.016 37.6653 30.404 36.0107 29.18 34.56C28.0013 33.1093 26.052 32.384 23.332 32.384C22.9693 32.384 22.5387 32.4067 22.04 32.452C21.5867 32.4973 21.1107 32.5653 20.612 32.656C20.9747 33.7893 21.2013 34.9227 21.292 36.056C21.428 37.144 21.496 38.2093 21.496 39.252C21.496 41.0653 21.36 42.8107 21.088 44.488C20.816 46.1653 20.4987 47.82 20.136 49.452C20.7707 49.588 21.3827 49.656 21.972 49.656ZM68.2412 74.34C66.6546 74.34 65.2719 73.8187 64.0932 72.776C62.9146 71.7333 62.3252 70.0333 62.3252 67.676C62.3252 67.4493 62.3252 67.2227 62.3252 66.996C62.3252 66.7693 62.3479 66.5427 62.3932 66.316C61.0332 69.036 59.4919 71.0533 57.7692 72.368C56.0919 73.6373 54.3919 74.272 52.6692 74.272C51.0826 74.272 49.5866 73.728 48.1812 72.64C46.7759 71.5067 45.6426 69.852 44.7812 67.676C43.9199 65.5 43.4892 62.8707 43.4892 59.788C43.4892 56.6147 43.9199 53.7813 44.7812 51.288C45.6879 48.7947 46.8666 46.6867 48.3172 44.964C49.7679 43.2413 51.3546 41.9493 53.0772 41.088C54.7999 40.1813 56.4772 39.728 58.1092 39.728C59.9226 39.728 61.5546 40.2947 63.0052 41.428C64.4559 42.516 65.4532 44.2613 65.9972 46.664C66.1332 45.8933 66.2239 45.1907 66.2692 44.556C66.3599 43.9213 66.4052 43.4907 66.4052 43.264C66.4506 42.04 67.0626 41.1333 68.2412 40.544C69.4652 39.9547 70.8026 39.66 72.2532 39.66C73.5226 39.66 74.7239 39.9093 75.8572 40.408C76.9906 40.9067 77.7612 41.7453 78.1692 42.924L78.3052 43.332C77.7612 44.556 77.2172 46.0293 76.6732 47.752C76.1292 49.4747 75.6306 51.288 75.1772 53.192C74.7239 55.0507 74.3612 56.8867 74.0892 58.7C73.8172 60.468 73.6812 62.032 73.6812 63.392C73.6812 64.888 73.8399 65.9307 74.1572 66.52C74.4746 67.064 74.8599 67.336 75.3132 67.336C76.0839 67.336 76.7866 66.792 77.4212 65.704L77.9652 65.976C77.9652 67.5173 77.4666 68.9227 76.4692 70.192C75.4719 71.4613 74.2252 72.4813 72.7292 73.252C71.2332 73.9773 69.7372 74.34 68.2412 74.34ZM57.1572 65.704C58.3359 65.704 59.6279 64.6613 61.0332 62.576C62.4839 60.4453 63.7306 57.408 64.7732 53.464C64.8639 53.056 64.9546 52.6707 65.0452 52.308C65.1359 51.9 65.2039 51.5147 65.2492 51.152C64.5239 49.4747 63.7532 48.296 62.9372 47.616C62.1666 46.8907 61.3959 46.528 60.6252 46.528C59.4919 46.528 58.4266 47.14 57.4292 48.364C56.4772 49.5427 55.6839 51.0387 55.0492 52.852C54.4599 54.6653 54.1652 56.4787 54.1652 58.292C54.1652 60.7853 54.4372 62.644 54.9812 63.868C55.5706 65.092 56.2959 65.704 57.1572 65.704ZM127.572 74.272C125.532 74.272 123.81 73.4333 122.404 71.756C121.044 70.0787 120.364 67.8347 120.364 65.024C120.364 63.4827 120.546 61.828 120.908 60.06C121.271 58.292 121.634 56.6147 121.996 55.028C122.314 53.8493 122.563 52.7613 122.744 51.764C122.971 50.7213 123.084 49.8827 123.084 49.248C123.084 48.432 122.903 47.8427 122.54 47.48C122.223 47.1173 121.838 46.936 121.384 46.936C120.931 46.936 120.478 47.0947 120.024 47.412C119.571 47.684 119.208 48.1147 118.936 48.704L118.392 48.5C118.392 46.6413 118.846 45.0547 119.752 43.74C120.659 42.4253 121.815 41.428 123.22 40.748C124.626 40.068 126.054 39.728 127.504 39.728C128.683 39.728 129.816 39.9773 130.904 40.476C131.992 40.9293 132.876 41.6547 133.556 42.652C134.282 43.6493 134.644 44.896 134.644 46.392C134.644 47.2987 134.508 48.3867 134.236 49.656C134.01 50.9253 133.738 52.24 133.42 53.6C133.103 55.0053 132.786 56.4333 132.468 57.884C132.196 59.2893 132.06 60.536 132.06 61.624C132.06 62.6213 132.219 63.4373 132.536 64.072C132.854 64.7067 133.33 65.024 133.964 65.024C135.143 65.024 136.458 63.936 137.908 61.76C139.404 59.584 140.606 56.66 141.512 52.988C141.694 52.2627 141.852 51.492 141.988 50.676C142.124 49.86 142.192 49.0213 142.192 48.16C142.192 47.48 142.147 46.8 142.056 46.12C141.966 45.3947 141.83 44.6693 141.648 43.944L141.648 43.468C142.374 42.244 143.303 41.3147 144.436 40.68C145.615 40.0453 146.794 39.728 147.972 39.728C149.559 39.728 150.987 40.272 152.256 41.36C153.526 42.448 154.16 44.0347 154.16 46.12C154.16 47.344 153.934 48.772 153.48 50.404C153.027 51.9907 152.528 53.6453 151.984 55.368C151.44 57.0453 150.942 58.7 150.488 60.332C150.035 61.964 149.808 63.4147 149.808 64.684C149.808 66.5427 150.466 67.472 151.78 67.472C152.143 67.472 152.574 67.3813 153.072 67.2C153.616 66.9733 154.115 66.5427 154.568 65.908L155.044 66.044C155.044 67.676 154.591 69.1267 153.684 70.396C152.823 71.62 151.712 72.572 150.352 73.252C148.992 73.932 147.587 74.272 146.136 74.272C144.278 74.272 142.6 73.592 141.104 72.232C139.654 70.872 138.928 68.6507 138.928 65.568L138.928 65.432C137.07 68.6053 135.143 70.872 133.148 72.232C131.154 73.592 129.295 74.272 127.572 74.272ZM174.896 87.6C172.675 87.6 170.839 86.9427 169.388 85.628C167.937 84.3133 167.212 82.4547 167.212 80.052C167.212 77.468 168.119 74.4307 169.932 70.94C169.615 71.0307 169.297 71.0987 168.98 71.144C168.663 71.1893 168.345 71.212 168.028 71.212C165.399 71.212 163.177 70.0787 161.364 67.812C159.596 65.5 158.712 62.304 158.712 58.224C158.712 54.552 159.415 51.3107 160.82 48.5C162.271 45.6893 164.107 43.4907 166.328 41.904C168.549 40.3173 170.861 39.524 173.264 39.524C174.941 39.524 176.46 39.9547 177.82 40.816C179.18 41.632 180.291 42.9693 181.152 44.828C181.197 44.3747 181.22 43.9667 181.22 43.604C181.22 43.2413 181.22 42.9013 181.22 42.584C181.22 41.8133 181.809 41.1787 182.988 40.68C184.167 40.1813 185.481 39.932 186.932 39.932C188.247 39.932 189.471 40.1813 190.604 40.68C191.737 41.1787 192.485 42.0173 192.848 43.196L192.984 43.604C192.576 43.9667 192.213 45.1453 191.896 47.14C191.624 49.1347 191.284 51.9 190.876 55.436C190.604 57.6573 190.264 60.196 189.856 63.052C189.448 65.8627 188.881 68.7187 188.156 71.62C187.476 74.476 186.569 77.1053 185.436 79.508C184.303 81.956 182.875 83.9053 181.152 85.356C179.429 86.852 177.344 87.6 174.896 87.6ZM172.652 63.392C173.967 63.392 175.417 62.3267 177.004 60.196C178.636 58.02 179.928 54.9147 180.88 50.88C180.064 49.112 179.225 47.8653 178.364 47.14C177.548 46.3693 176.709 45.984 175.848 45.984C174.715 45.984 173.649 46.5507 172.652 47.684C171.655 48.8173 170.839 50.268 170.204 52.036C169.615 53.7587 169.32 55.5493 169.32 57.408C169.32 59.312 169.637 60.7853 170.272 61.828C170.907 62.8707 171.7 63.392 172.652 63.392ZM171.836 79.78C173.377 79.78 174.941 78.2613 176.528 75.224C178.16 72.232 179.293 67.9933 179.928 62.508C176.483 67.1773 174.08 70.7813 172.72 73.32C171.405 75.8133 170.748 77.5813 170.748 78.624C170.748 79.3947 171.111 79.78 171.836 79.78ZM220.976 74.34C219.389 74.34 218.006 73.8187 216.828 72.776C215.649 71.7333 215.06 70.0333 215.06 67.676C215.06 67.4493 215.06 67.2227 215.06 66.996C215.06 66.7693 215.082 66.5427 215.128 66.316C213.768 69.036 212.226 71.0533 210.504 72.368C208.826 73.6373 207.126 74.272 205.404 74.272C203.817 74.272 202.321 73.728 200.916 72.64C199.51 71.5067 198.377 69.852 197.516 67.676C196.654 65.5 196.224 62.8707 196.224 59.788C196.224 56.6147 196.654 53.7813 197.516 51.288C198.422 48.7947 199.601 46.6867 201.052 44.964C202.502 43.2413 204.089 41.9493 205.812 41.088C207.534 40.1813 209.212 39.728 210.844 39.728C212.657 39.728 214.289 40.2947 215.74 41.428C217.19 42.516 218.188 44.2613 218.732 46.664C218.868 45.8933 218.958 45.1907 219.004 44.556C219.094 43.9213 219.14 43.4907 219.14 43.264C219.185 42.04 219.797 41.1333 220.976 40.544C222.2 39.9547 223.537 39.66 224.988 39.66C226.257 39.66 227.458 39.9093 228.592 40.408C229.725 40.9067 230.496 41.7453 230.904 42.924L231.04 43.332C230.496 44.556 229.952 46.0293 229.408 47.752C228.864 49.4747 228.365 51.288 227.912 53.192C227.458 55.0507 227.096 56.8867 226.824 58.7C226.552 60.468 226.416 62.032 226.416 63.392C226.416 64.888 226.574 65.9307 226.892 66.52C227.209 67.064 227.594 67.336 228.048 67.336C228.818 67.336 229.521 66.792 230.156 65.704L230.7 65.976C230.7 67.5173 230.201 68.9227 229.204 70.192C228.206 71.4613 226.96 72.4813 225.464 73.252C223.968 73.9773 222.472 74.34 220.976 74.34ZM209.892 65.704C211.07 65.704 212.362 64.6613 213.768 62.576C215.218 60.4453 216.465 57.408 217.508 53.464C217.598 53.056 217.689 52.6707 217.78 52.308C217.87 51.9 217.938 51.5147 217.984 51.152C217.258 49.4747 216.488 48.296 215.672 47.616C214.901 46.8907 214.13 46.528 213.36 46.528C212.226 46.528 211.161 47.14 210.164 48.364C209.212 49.5427 208.418 51.0387 207.784 52.852C207.194 54.6653 206.9 56.4787 206.9 58.292C206.9 60.7853 207.172 62.644 207.716 63.868C208.305 65.092 209.03 65.704 209.892 65.704ZM233.728 45.1L233.592 44.488C236.13 42.856 237.4 40.5213 237.4 37.484C237.4 36.4413 237.264 35.2853 236.992 34.016C236.901 33.5173 236.81 33.0187 236.72 32.52C236.674 32.0213 236.652 31.5227 236.652 31.024C236.652 28.712 237.264 26.9667 238.488 25.788C239.757 24.6093 241.162 24.02 242.704 24.02C244.517 24.02 245.922 24.7 246.92 26.06C247.917 27.3747 248.416 29.0067 248.416 30.956C248.416 32.452 248.076 34.0387 247.396 35.716C246.761 37.348 245.786 38.8893 244.472 40.34C242.84 42.0627 241.049 43.2867 239.1 44.012C237.196 44.7373 235.405 45.1 233.728 45.1ZM255.995 74.612C253.184 74.612 250.849 74.2267 248.991 73.456C247.132 72.6853 245.749 71.7107 244.843 70.532C243.936 69.308 243.483 68.084 243.483 66.86C243.483 65.1373 244.253 63.6187 245.795 62.304C247.336 60.944 249.421 60.264 252.051 60.264C252.051 62.576 252.345 64.4347 252.935 65.84C253.524 67.2 254.272 68.1747 255.179 68.764C256.131 69.3533 257.037 69.648 257.899 69.648C258.941 69.648 259.803 69.3533 260.483 68.764C261.208 68.1293 261.571 67.3587 261.571 66.452C261.571 65.1827 260.913 64.072 259.599 63.12C258.284 62.168 256.584 61.1027 254.499 59.924C253.456 59.2893 252.323 58.564 251.099 57.748C249.875 56.8867 248.832 55.8667 247.971 54.688C247.109 53.464 246.679 52.0133 246.679 50.336C246.679 48.568 247.177 47.004 248.175 45.644C249.217 44.284 250.577 43.1507 252.255 42.244C253.932 41.292 255.745 40.5893 257.695 40.136C259.644 39.6373 261.548 39.388 263.407 39.388C266.897 39.388 269.527 40.0907 271.295 41.496C273.063 42.9013 273.947 44.3973 273.947 45.984C273.947 47.344 273.267 48.568 271.907 49.656C270.547 50.744 268.461 51.288 265.651 51.288C265.696 48.976 265.22 47.2987 264.223 46.256C263.225 45.168 262.16 44.624 261.027 44.624C260.211 44.624 259.531 44.8733 258.987 45.372C258.443 45.8707 258.171 46.596 258.171 47.548C258.171 48.636 258.511 49.588 259.191 50.404C259.916 51.1747 260.8 51.8773 261.843 52.512C262.931 53.1013 264.041 53.668 265.175 54.212C266.716 54.9373 268.167 55.708 269.527 56.524C270.887 57.34 271.997 58.2693 272.859 59.312C273.72 60.3547 274.151 61.624 274.151 63.12C274.151 65.16 273.312 67.064 271.635 68.832C270.003 70.5547 267.804 71.96 265.039 73.048C262.273 74.0907 259.259 74.612 255.995 74.612Z" fill="black"/>
</g>
<defs>
<clipPath id="clip0_1_2">
<rect width="280" height="120" fill="white"/>
</clipPath>
</defs>
</svg>
